<svg width="132" height="130" viewBox="0 0 132 130" fill="none" xmlns="http://www.w3.org/2000/svg">
<path d="M91.0275 43.626C83.901 36.5079 74.3401 32.3196 64.1728 32.0509C54.0056 31.7822 44.0327 35.3695 36.2533 42.0937C28.474 48.8179 23.4632 58.182 22.2254 68.3088C20.9876 78.4356 23.6144 88.5766 29.579 96.699L36.484 91.5631C31.7791 85.1562 29.7072 77.1571 30.6835 69.1692C31.6599 61.1814 35.6123 53.7951 41.7486 48.4912C47.8848 43.1872 55.7513 40.3576 63.7711 40.5696C71.7909 40.7815 79.5432 44.1535 85.1645 49.7682L91.0275 43.626Z" fill="white"/>
<path d="M49.9999 107.483C56.4212 109.159 68.5306 111.109 74.848 109.159C81.1653 107.208 88.8132 102.846 93.3696 98.1662C97.926 93.4867 101.092 88.4985 102.767 81.7979C103.884 75.3765 104.442 68.955 104.442 67.559L97.7415 74.2596C97.4624 75.3764 97.4624 75.6557 96.3456 79.0058C94.9018 84.185 91.37 88.8157 87.6582 92.6277C83.9465 96.4397 79.4357 100.031 74.2894 101.62C69.3768 103.789 63.6802 103.295 58.3755 101.9L49.9999 107.483Z" fill="white"/>
<path d="M22.509 86.9463C11.6205 101.185 8.54942 105.931 6.59504 112.353C5.47831 118.495 6.87423 120.449 15.5292 117.099C24.7425 112.074 38.4228 103.419 53.22 90.0177C68.0172 76.0579 82.2559 61.8191 96.2154 46.4636L95.657 45.9052L94.2612 44.5093L92.0276 42.2758C81.6975 52.885 66.342 70.1949 55.4536 80.5249C45.1537 90.2966 41.494 93.9261 26.4176 105.094C19.069 110.538 12.4581 113.749 11.0621 110.678C11.0621 106.211 14.6916 100.627 21.9506 90.2966L22.509 86.9463Z" fill="#FFFDFD" fill-opacity="0.87"/>
<path d="M47.5568 103.643C53.1406 100.292 56.2118 98.0589 62.354 93.5919C69.0546 88.2873 73.3546 84.5195 80.5013 77.9572C87.648 71.3948 94.8974 63.5652 100.856 56.0523C107.583 46.5598 111.447 41.5343 114.815 34.8337C118.178 28.1444 119.426 22.2623 119.399 17.9764C119.372 13.6904 117.573 10.9928 114.163 10.1224C110.752 9.25193 105.835 10.2356 99.8463 12.9863C93.8579 15.7369 88.7434 18.7816 81.5914 24.5037L80.7805 27.982C87.0521 22.9642 91.6244 20.6329 96.8756 18.2209C102.127 15.8088 109.591 13.1311 112.582 13.8944C114.939 14.496 114.257 18.6406 113.698 22.2701C112.861 25.8996 110.225 30.6431 107.277 36.5089C104.328 42.3747 98.5687 48.7547 93.3441 55.3428C87.7604 61.7641 83.0141 67.3479 76.3135 73.7693C70.1713 80.1907 66.821 83.541 60.958 88.5664C55.095 93.5919 46.9985 99.455 43.0897 101.409L45.6025 102.805L47.5568 103.643Z" fill="white"/>
</svg>
